<svg version="1.2" xmlns="http://www.w3.org/2000/svg" viewBox="0 0 70 69" width="70" height="69"><style>.a{fill:#fff}</style><path fill-rule="evenodd" class="a" d="m53.5 10.4l-26.6 25.6v7.1h7.1l25.6-26.6zm0.1-10.3c1.1 0 2.2 0.4 3 1.2l12.2 12.2c1.7 1.7 1.7 4.4 0 6.1l-31.1 32.2h-19.4v-19.4l32.2-31.1c0.9-0.8 2-1.2 3.1-1.2zm7.8 47.4c0-2.4 1.9-4.3 4.3-4.3 2.4 0 4.3 1.9 4.3 4.3v17.2c0 2.4-1.9 4.4-4.3 4.4h-60.3c-2.4 0-4.3-2-4.3-4.4v-60.3c0-2.4 1.9-4.3 4.3-4.3h17.2c2.4 0 4.3 1.9 4.3 4.3 0 2.4-1.9 4.3-4.3 4.3h-10.8c-1.2 0-2.1 1-2.1 2.1v47.5c0 1.2 0.9 2.1 2.1 2.1h47.5c1.2 0 2.1-0.9 2.1-2.1z"/></svg>